<?xml version="1.0" standalone="no"?>
<!DOCTYPE svg PUBLIC "-//W3C//DTD SVG 20010904//EN"
 "http://www.w3.org/TR/2001/REC-SVG-20010904/DTD/svg10.dtd">
<svg version="1.0" xmlns="http://www.w3.org/2000/svg"
 width="512.000000pt" height="512.000000pt" viewBox="0 0 512.000000 512.000000"
 preserveAspectRatio="xMidYMid meet">

<g transform="translate(0.000000,512.000000) scale(0.100000,-0.100000)"
fill="#000000" stroke="none">
<path d="M2695 5060 c-360 -30 -716 -153 -1005 -345 -155 -103 -353 -269 -348
-291 2 -7 67 -78 146 -158 l144 -145 86 75 c411 359 957 506 1482 398 188 -39
420 -136 585 -246 l80 -53 -182 -3 -183 -2 0 -220 0 -220 570 0 570 0 0 600 0
600 -212 -2 -213 -3 -3 -233 -2 -232 -78 59 c-399 304 -940 463 -1437 421z"/>
<path d="M542 3478 c-264 -167 -481 -307 -482 -311 0 -12 213 -367 220 -367 3
0 94 56 201 124 106 67 195 122 197 120 2 -1 -2 -58 -9 -126 -23 -236 7 -520
83 -793 200 -720 746 -1304 1436 -1534 51 -17 99 -31 105 -31 10 0 106 349
111 405 1 11 -30 26 -103 50 -512 173 -917 585 -1104 1122 -68 193 -111 447
-105 608 l3 80 79 -140 c44 -77 80 -142 82 -143 1 -2 84 46 183 108 170 105
180 113 169 133 -52 101 -572 997 -577 997 -4 0 -224 -136 -489 -302z"/>
<path d="M4770 3343 c-102 -30 -186 -56 -188 -58 -2 -2 8 -59 22 -127 47 -230
57 -403 36 -593 -62 -533 -330 -1007 -740 -1306 -88 -65 -180 -122 -186 -116
-3 2 32 75 78 163 45 87 77 159 72 161 -5 2 -87 46 -183 98 -96 52 -177 95
-180 95 -7 -1 -534 -1013 -539 -1033 -2 -10 923 -540 980 -562 18 -7 29 12
147 236 l71 137 -197 108 c-109 59 -204 112 -211 117 -9 7 17 26 98 69 622
327 1062 942 1184 1653 23 135 38 367 31 480 -14 223 -69 529 -95 531 -8 1
-98 -23 -200 -53z"/>
</g>
</svg>
