<svg width="23" height="20" viewBox="0 0 23 20" fill="none" xmlns="http://www.w3.org/2000/svg">
<mask id="mask0" mask-type="alpha" maskUnits="userSpaceOnUse" x="0" y="0" width="23" height="20">
<rect x="0.599976" y="0.466675" width="22.4" height="19.0667" rx="1" fill="#C4C4C4"/>
</mask>
<g mask="url(#mask0)">
<path fill-rule="evenodd" clip-rule="evenodd" d="M0.599976 0.466675C0.599976 0.466675 1.57514 0.466675 2.19998 0.466675C5.94901 0.466675 11.8 0.466675 11.8 0.466675L11.8 1.93334L2.19998 1.93334L2.19998 18.0667L11.8 18.0667L11.8 19.5333L2.19998 19.5333L0.599976 19.5333L0.599976 18.0667L0.599976 1.93334L0.599976 0.466675ZM16.3657 5.08146L21.7092 9.97968L16.3878 15.2641L15.2121 14.2693L18.7728 10.7333L5.39998 10.7333L5.39998 9.26668L18.6686 9.26668L15.2343 6.11855L16.3657 5.08146Z" fill="#E74141" stroke="#E74141" stroke-width="2"/>
</g>
</svg>
