<svg width="30" height="20" viewBox="0 0 30 20" fill="none" xmlns="http://www.w3.org/2000/svg">
<path d="M0 2C0 0.895431 0.895431 0 2 0H28C29.1046 0 30 0.895431 30 2V2C30 3.10457 29.1046 4 28 4H2C0.89543 4 0 3.10457 0 2V2Z" fill="#F9F9F9"/>
<path d="M0 10C0 8.89543 0.895431 8 2 8H28C29.1046 8 30 8.89543 30 10V10C30 11.1046 29.1046 12 28 12H2C0.89543 12 0 11.1046 0 10V10Z" fill="#F9F9F9"/>
<path d="M0 18C0 16.8954 0.895431 16 2 16H28C29.1046 16 30 16.8954 30 18V18C30 19.1046 29.1046 20 28 20H2C0.89543 20 0 19.1046 0 18V18Z" fill="#F9F9F9"/>
</svg>
