<svg width="110" height="120" viewBox="0 0 110 120" fill="none" xmlns="http://www.w3.org/2000/svg">
<path d="M86.5993 0H0V120H110V19.9975L86.5993 0Z" fill="#E8E8E8"/>
<path d="M91.3201 59.3434C89.6328 56.7735 83.8027 55.9661 81.128 55.6028C79.0198 55.3162 76.8675 55.2307 74.7352 55.2323C73.0609 55.2228 71.4111 55.2933 69.7827 55.3724C69.1825 55.4068 68.5882 55.4512 67.9945 55.4951C67.3859 54.9568 66.7977 54.4007 66.2285 53.832C62.6067 50.1681 59.6823 46.0131 57.2994 41.6954C57.9321 39.6091 58.4383 37.4319 58.744 35.1707C59.3021 31.0437 59.4938 26.3405 57.6843 22.4059C57.0595 21.048 55.3935 19.3947 53.4715 20.218C51.2618 21.1647 50.6402 23.847 50.4601 25.7484C50.3151 27.2853 50.4165 28.8261 50.7185 30.3373C51.026 31.8587 51.5212 33.3033 52.0603 34.746C52.5632 36.0687 53.1176 37.3812 53.722 38.6814C53.3386 39.7049 52.9314 40.7106 52.504 41.6906C51.5073 43.9241 50.4295 46.0459 49.393 48.087C48.8465 49.0991 48.3115 50.0897 47.7882 51.0583C46.1319 54.1672 44.334 57.2192 42.316 60.1694C37.6091 61.5884 33.3851 63.2333 29.8772 65.1663C27.9954 66.2053 26.3332 67.3337 24.9488 68.5714C23.6418 69.7397 22.3135 71.256 22.1973 72.9346C22.132 73.8821 22.571 74.8015 23.4793 75.3636C24.7284 76.1611 26.3837 76.1081 27.8329 75.8484C32.5802 74.9975 36.2256 71.5101 39.3301 68.571C41.4685 66.5465 43.9023 63.9758 46.4483 60.8668C46.4538 60.8597 46.4594 60.8526 46.4654 60.8455C50.832 59.6885 55.5844 58.7117 60.6281 57.9938C62.9322 57.6672 65.2975 57.4001 67.7101 57.2125C69.4066 58.5704 71.2398 59.8069 73.2396 60.8395C74.7972 61.6584 76.4539 62.3499 78.1879 62.8656C79.9414 63.3552 81.7056 63.7549 83.5271 64.0078C84.447 64.1203 85.3876 64.1713 86.3486 64.1404C88.4935 64.0712 91.5721 63.3682 91.774 61.1443C91.836 60.4635 91.6642 59.8667 91.3201 59.3434ZM39.9711 63.4241C38.9665 64.7539 37.9976 65.95 37.0848 67.0024C34.8491 69.602 32.2958 72.6896 28.5989 73.8441C27.8968 74.0634 26.9723 74.2898 25.9979 74.2407C25.1299 74.1972 24.274 73.8699 24.3134 73.0276C24.3329 72.5867 24.5853 72.0243 24.9725 71.4717C25.3962 70.8658 25.921 70.3101 26.4893 69.7991C27.7069 68.7059 29.2464 67.6464 31.0175 66.6652C33.7339 65.1592 36.9769 63.8036 40.5917 62.5941C40.3838 62.8751 40.1763 63.1545 39.9711 63.4241ZM52.579 30.0744C52.3002 28.6836 52.258 27.2734 52.4294 25.9174C52.5146 25.2394 52.6762 24.5777 52.9101 23.9574C53.1084 23.431 53.5363 22.1463 54.219 21.9812C55.3445 21.7089 55.6904 23.7738 55.8178 24.358C56.5431 27.6811 55.9039 31.3766 55.0337 34.6364C54.8952 35.1549 54.741 35.665 54.583 36.1732C54.3135 35.5396 54.0564 34.9039 53.8198 34.2651C53.3103 32.8699 52.8444 31.4585 52.579 30.0744ZM60.3057 56.3077C56.0772 56.8934 52.0547 57.6609 48.2735 58.5669C48.7288 58.458 50.8093 55.0886 51.2734 54.3893C53.4599 51.0982 55.2486 47.6441 56.5338 44.0206C58.8033 47.8563 61.5576 51.5257 64.9414 54.7918C65.2531 55.0882 65.5699 55.3811 65.8922 55.6704C63.9961 55.845 62.1301 56.0575 60.3057 56.3077ZM88.9025 60.9361C88.7478 61.6505 86.9623 62.059 86.1291 62.1714C83.667 62.5022 81.0622 62.2375 78.7057 61.561C77.0889 61.0972 75.5295 60.4655 74.0478 59.7056C72.575 58.9452 71.1972 58.0508 69.9091 57.0644C71.4973 56.9829 73.1049 56.9295 74.7203 56.9556C76.3358 56.9694 77.9638 57.0391 79.5718 57.2184C82.5874 57.5057 85.9665 58.3903 88.3402 60.0626C88.8075 60.3923 88.9566 60.6836 88.9025 60.9361Z" fill="#FB3449"/>
<path d="M90.2207 9.99894H0V0H86.5993L90.2207 9.99894Z" fill="#FB3449"/>
<path d="M43.5356 95.4473C43.5356 97.5691 42.8038 99.2077 41.3393 100.363C39.8749 101.52 37.7953 102.097 35.0998 102.097H33.4125V108.397H27.4092V89.4075H35.1002C37.9069 89.4075 40.0147 89.9315 41.4232 90.9792C42.8316 92.0268 43.5356 93.5162 43.5356 95.4473ZM33.413 97.9151H34.5074C35.4092 97.9151 36.1261 97.699 36.6583 97.2656C37.1904 96.8326 37.4563 96.2349 37.4563 95.473C37.4563 94.1914 36.6254 93.5506 34.9636 93.5506H33.413V97.9151Z" fill="#A4A9AD"/>
<path d="M65.9403 98.4989C65.9403 101.668 64.9191 104.11 62.8775 105.825C60.836 107.539 57.9654 108.397 54.2671 108.397H47.0776V89.4067H54.7687C58.3354 89.4067 61.0888 90.1861 63.0294 91.7447C64.9696 93.3033 65.9403 95.555 65.9403 98.4989ZM59.7087 98.681C59.7087 96.9403 59.3057 95.6504 58.5003 94.8101C57.6949 93.9702 56.4712 93.5503 54.8294 93.5503H53.0819V104.188H54.4195C56.2438 104.188 57.5809 103.736 58.4322 102.83C59.283 101.926 59.7087 100.543 59.7087 98.681Z" fill="#A4A9AD"/>
<path d="M75.8349 108.397H69.9224V89.4067H83.055V93.5242H75.8349V97.1481H82.4923V101.266H75.8349V108.397Z" fill="#A4A9AD"/>
<path d="M86.5996 19.9975H110L86.5996 0V19.9975Z" fill="#D1D3D3"/>
</svg>
