<svg width="22" height="20" viewBox="0 0 22 20" fill="none" xmlns="http://www.w3.org/2000/svg">
<path d="M7.02632 4.86486C7.02632 2.58899 8.62881 1 11 1C13.3712 1 14.9737 2.58899 14.9737 4.86486C14.9737 7.14074 13.3712 8.72973 11 8.72973C8.62881 8.72973 7.02632 7.14074 7.02632 4.86486ZM1.5 16.1302C1.5 15.6464 1.73862 15.1442 2.31968 14.6172C2.90679 14.0846 3.76873 13.601 4.8022 13.1941C6.87003 12.38 9.37055 11.9705 11 11.9705C12.6294 11.9705 15.13 12.38 17.1978 13.1941C18.2313 13.601 19.0932 14.0846 19.6803 14.6172C20.2614 15.1442 20.5 15.6464 20.5 16.1302V18.7101C20.5 18.851 20.3735 19 20.1875 19H1.8125C1.62648 19 1.5 18.851 1.5 18.7101V16.1302Z" stroke="brown" stroke-width="2"/>
</svg>
